<?xml version="1.0" encoding="utf-8"?>
<svg version="1.1" xmlns="http://www.w3.org/2000/svg" xmlns:xlink="http://www.w3.org/1999/xlink" x="0px" y="0px" xml:space="preserve">
	 
<defs>
	 <symbol id="arrowRightCircle"  viewBox="0 0 18 18" enable-background="new 0 0 18 18" >

		<path d="M9,0C4,0,0,4,0,9c0,5,4,9,9,9c5,0,9-4,9-9C18,4,14,0,9,0z M9,16c-3.9,0-7-3.1-7-7c0-3.9,3.1-7,7-7c3.9,0,7,3.1,7,7
			C16,12.9,12.9,16,9,16z M9,5.4C8.6,5,8,5,7.6,5.4c-0.4,0.4-0.4,1,0,1.4L9.8,9l-2.2,2.2c-0.4,0.4-0.4,1,0,1.4
			c0.2,0.2,0.5,0.3,0.7,0.3c0.3,0,0.5-0.1,0.7-0.3l2.9-2.9c0.4-0.4,0.4-1,0-1.4L9,5.4z"/>

</symbol>
</defs>

</svg>
