<svg id="Layer_1" data-name="Layer 1" xmlns="http://www.w3.org/2000/svg" viewBox="0 0 70 57"><title>certificate</title><path d="M70,18V49a3,3,0,0,1-3,3H65a1,1,0,0,1,0-2h2a1,1,0,0,0,1-1V18.41l-15-15V16a1,1,0,0,0,1,1H64a1,1,0,0,1,1,1V28a1,1,0,0,1-2,0V19H54a3,3,0,0,1-3-3V2H3A1,1,0,0,0,2,3V49a1,1,0,0,0,1,1H45a1,1,0,0,1,0,2H3a3,3,0,0,1-3-3V3A3,3,0,0,1,3,0H52a1,1,0,0,1,.71.29l17,17A1,1,0,0,1,70,18ZM46,5H15a1,1,0,0,0-1,1,8,8,0,0,1-8,8,1,1,0,0,0-1,1V37a1,1,0,0,0,1,1,8,8,0,0,1,8,8,1,1,0,0,0,1,1H45a1,1,0,0,0,0-2H15.95A10,10,0,0,0,7,36.05V15.95A10,10,0,0,0,15.95,7H46a1,1,0,0,0,0-2ZM65,37A10,10,0,1,1,55,27,10,10,0,0,1,65,37Zm-2,0a8,8,0,1,0-8,8A8,8,0,0,0,63,37Zm-2,0a6,6,0,1,1-6-6A6,6,0,0,1,61,37Zm-2,0a4,4,0,1,0-4,4A4,4,0,0,0,59,37Zm2,10a1,1,0,0,0-1,1v5.87l-4.36-3.63a1,1,0,0,0-1.28,0L50,53.87V48a1,1,0,0,0-2,0v8a1,1,0,0,0,1.64.77L55,52.3l5.36,4.47A1,1,0,0,0,62,56V48A1,1,0,0,0,61,47ZM31,31H19a1,1,0,1,0,0,2H31a1,1,0,0,0,0-2Zm1,5a1,1,0,0,0-1-1H19a1,1,0,0,0,0,2H31A1,1,0,0,0,32,36Zm12-4a1,1,0,0,0-1-1H37a1,1,0,0,0,0,2h6A1,1,0,0,0,44,32Zm-7,5h4a1,1,0,0,0,0-2H37a1,1,0,0,0,0,2Zm0,4h5a1,1,0,0,0,0-2H37a1,1,0,0,0,0,2ZM19,39a1,1,0,0,0,0,2h6a1,1,0,0,0,0-2ZM16.5,22H48a1,1,0,0,0,0-2H16.5a3.5,3.5,0,0,0,0,7H45a1,1,0,0,0,0-2H16.5a1.5,1.5,0,0,1,0-3ZM25,15a1,1,0,0,0,1,1H44a1,1,0,0,0,0-2H26A1,1,0,0,0,25,15Zm13-3a1,1,0,0,0,0-2H32a1,1,0,0,0,0,2Z"/></svg>